# xmcd
#
# Track frame offsets: 
#        150
#        20033
#        41518
#
# Disc length: 816 seconds
#
# Revision: 1
# Processed by: cddbd v1.5.2PL0 Copyright (c) Steve Scherf et al.
# Submitted via: ExactAudioCopyFreeDBPlugin 1.0
#
DISCID=1e032e03
DTITLE=坂東まりも(CV.花澤香菜) / TVアニメ　てーきゅう5期　主題歌CD　Qunka!
DYEAR=2015
DGENRE=Anime
TTITLE0=Qunka!
TTITLE1=Qunka!(Holyパンツ Remix)
TTITLE2=Qunka!(Instrumental)
EXTD=
EXTT0=
EXTT1=
EXTT2=
PLAYORDER=
